[img]http://i.imgur.com/airGk.jpg[/img]

[code]

House.at.the.End.of.the.Street.2012.R5.LiNE.XViD-26k
 
http://www.imdb.com/title/tt1582507/

Plot:

A mother and daughter move to a new town and find themselves living next door to a house where a young 
girl murdered her parents. When the daughter befriends the surviving son, she learns the story is far 
from over.

Sources - VIDEO: Dom.v.konce.ulicu.2012.Dt.WEBDLRip.1400MB ..... thanks .... :P
          AUDIO: SeeN/UNiQUE ..... thanks .... :
         
Format                                   : AVI
Format/Info                              : Audio Video Interleave
File size                                : 1.31 GiB
Duration                                 : 1h 36mn
Overall bit rate                         : 1 934 Kbps
Writing application                      : VirtualDubMod 1.5.10.2 (build 2540/release)
Writing library                          : VirtualDub build 32839/release

Video
ID                                       : 0
Format                                   : MPEG-4 Visual
Format profile                           : Advanced Simple@L5
Format settings, BVOP                    : 2
Format settings, QPel                    : Yes
Format settings, GMC                     : No warppoints
Format settings, Matrix                  : Default (H.263)
Muxing mode                              : Packed bitstream
Codec ID                                 : XVID
Codec ID/Hint                            : XviD
Duration                                 : 1h 36mn
Bit rate                                 : 1 797 Kbps
Width                                    : 720 pixels
Height                                   : 304 pixels
Display aspect ratio                     : 2.35:1
Frame rate                               : 25.000 fps
Color space                              : YUV
Chroma subsampling                       : 4:2:0
Bit depth                                : 8 bits
Scan type                                : Progressive
Compression mode                         : Lossy
Bits/(Pixel*Frame)                       : 0.328
Stream size                              : 1.21 GiB (93%)
Writing library                          : XviD 64

Audio
ID                                       : 1
Format                                   : MPEG Audio
Format version                           : Version 1
Format profile                           : Layer 3
Codec ID                                 : 55
Codec ID/Hint                            : MP3
Duration                                 : 1h 36mn
Bit rate mode                            : Constant
Bit rate                                 : 128 Kbps
Channel(s)                               : 2 channels
Sampling rate                            : 48.0 KHz
Compression mode                         : Lossy
Stream size                              : 88.1 MiB (7%)
Alignment                                : Split accross interleaves
Interleave, duration                     : 40 ms (1.00 video frame)
Interleave, preload duration             : 500 ms
Writing library                          : LAME3.98.2


Notes -

K 1st off dont really know how to tag this so tagged it R5 LiNE as source says WEBRip
but never seen a 25fps WEBRip b4 and it looks more R5 then WEBRip..

Took source and jsut added a few filters to make it better then jsut muxed SeeN/UNiQUE's
LiNE to it (nice sync job btw guys)... enjoy til retail... 

[/code]

Screens:

[img]http://i.imgur.com/7VVXx.png[/img]
[img]http://i.imgur.com/Zbf3e.png[/img]
[img]http://i.imgur.com/meJ9B.png[/img]
[img]http://i.imgur.com/ysbRD.png[/img]
[img]http://i.imgur.com/SAo8I.jpg[/img]

Greetz:
XtremeEncode|CM8|RX|VISION|HDSCENE|xTriLL|ADTRG|CRYS|REMIXHD|HS|Tommiecook
BIDA|RX|REFILL|INSPiRAL|AXED|HOPE|Anonymous|GooN|NOIR|Blackjesus|Gabroo Punjab Deh
|UNiQUE|RESiSTANCE|HS|LEGION

To all the people who have helped me, you know who you are

Anything to offer email us @: 26k@hushmail.me 